<svg xmlns="http://www.w3.org/2000/svg" version="1.1" xmlns:xlink="http://www.w3.org/1999/xlink" xmlns:svgjs="http://svgjs.com/svgjs" width="1440" height="560" preserveAspectRatio="none" viewBox="0 0 1440 560"><g mask="url(&quot;#SvgjsMask1018&quot;)" fill="none"><rect width="1440" height="560" x="0" y="0" fill="rgba(30, 33, 62, 1)"></rect><path d="M1180.19 180.19a39.04 39.04 0 1 0 76.25 16.8z" fill="rgba(66, 77, 135, 1)"></path><path d="M136.69 146.7L156.03 146.7L156.03 166.04L136.69 166.04z" fill="rgba(217, 90, 166, 1)"></path><path d="M97.57 443 a15.93 15.93 0 1 0 31.86 0 a15.93 15.93 0 1 0 -31.86 0z" fill="rgba(66, 77, 135, 1)"></path><path d="M970.7 454.97 a4.52 4.52 0 1 0 9.04 0 a4.52 4.52 0 1 0 -9.04 0z" fill="rgba(217, 90, 166, 1)"></path><path d="M86.49 258.41a43.32 43.32 0 1 0-17.63-84.82z" fill="rgba(217, 90, 166, 1)"></path><path d="M491.41 531.68 a37.7 37.7 0 1 0 75.4 0 a37.7 37.7 0 1 0 -75.4 0z" stroke="rgba(217, 90, 166, 1)"></path><path d="M284.95 295.87a32.31 32.31 0 1 0 55.98-32.3z" stroke="rgba(66, 77, 135, 1)"></path><path d="M727.63 357.79L772.42 357.79L772.42 392.38L727.63 392.38z" stroke="rgba(134, 87, 192, 1)"></path><path d="M1057.04 455.51a13.34 13.34 0 1 0-21.97 15.13z" fill="rgba(134, 87, 192, 1)"></path><path d="M1422.41 143.51a32.02 32.02 0 1 0-8.21 63.52z" stroke="rgba(134, 87, 192, 1)"></path><path d="M732.87 336.16a14.21 14.21 0 1 0-2.06 28.34z" stroke="rgba(103, 46, 88, 1)"></path><path d="M56.63 18.18a2.6 2.6 0 1 0-3.23 4.07z" stroke="rgba(103, 46, 88, 1)"></path><path d="M174.78 430.84L201.11 430.84L201.11 457.17L174.78 457.17z" fill="rgba(66, 77, 135, 1)"></path><path d="M1290.16 252.88 a54.67 54.67 0 1 0 109.34 0 a54.67 54.67 0 1 0 -109.34 0z" fill="rgba(66, 77, 135, 1)"></path><path d="M943.47 427.18a23.6 23.6 0 1 0-34.83 31.86z" stroke="rgba(66, 77, 135, 1)"></path><path d="M39.78-24.6a37.89 37.89 0 1 0-15.78 74.12z" fill="rgba(66, 77, 135, 1)"></path><path d="M306.93 423.91L356.69 423.91L356.69 473.67L306.93 473.67z" fill="rgba(134, 87, 192, 1)"></path><path d="M1036.38 533.23 a25.68 25.68 0 1 0 51.36 0 a25.68 25.68 0 1 0 -51.36 0z" stroke="rgba(217, 90, 166, 1)"></path><path d="M1185.11 109.98L1191.11 109.98L1191.11 115.98L1185.11 115.98z" fill="rgba(217, 90, 166, 1)"></path><path d="M1182.94 137.05L1213.12 137.05L1213.12 141.93L1182.94 141.93z" stroke="rgba(103, 46, 88, 1)"></path><path d="M601.94 149.53L620.18 149.53L620.18 167.77L601.94 167.77z" stroke="rgba(66, 77, 135, 1)"></path><path d="M250.06 380.46a14.15 14.15 0 1 0-21.64 18.23z" fill="rgba(217, 90, 166, 1)"></path><path d="M780.46 429.04 a28.82 28.82 0 1 0 57.64 0 a28.82 28.82 0 1 0 -57.64 0z" stroke="rgba(134, 87, 192, 1)"></path><path d="M520.25 57.09a41.43 41.43 0 1 0 7.75-82.49z" stroke="rgba(217, 90, 166, 1)"></path><path d="M1317 198.04a5.21 5.21 0 1 0-6.68-8z" stroke="rgba(66, 77, 135, 1)"></path><path d="M1090.39 250.35 a34.56 34.56 0 1 0 69.12 0 a34.56 34.56 0 1 0 -69.12 0z" fill="rgba(66, 77, 135, 1)"></path><path d="M1200.86 257.93L1247.06 257.93L1247.06 275L1200.86 275z" stroke="rgba(134, 87, 192, 1)"></path><path d="M10.41 253.94L22.41 253.94L22.41 265.94L10.41 265.94z" stroke="rgba(134, 87, 192, 1)"></path><path d="M668.57 152.87a39.72 39.72 0 1 0-17.35-77.53z" fill="rgba(134, 87, 192, 1)"></path><path d="M962.35 381.95 a26.56 26.56 0 1 0 53.12 0 a26.56 26.56 0 1 0 -53.12 0z" stroke="rgba(134, 87, 192, 1)"></path><path d="M98.77 535.47a44.52 44.52 0 1 0-4.47-88.93z" fill="rgba(217, 90, 166, 1)"></path><path d="M982.64 80.29a1.56 1.56 0 1 0 3.1 0.38z" stroke="rgba(66, 77, 135, 1)"></path><path d="M818.79 431.51 a45.5 45.5 0 1 0 91 0 a45.5 45.5 0 1 0 -91 0z" stroke="rgba(217, 90, 166, 1)"></path></g><defs><mask id="SvgjsMask1018"><rect width="1440" height="560" fill="#ffffff"></rect></mask></defs></svg>